HIERARCHY
ROOT Hips
{
	OFFSET -3.958830 18.904000 13.208200
	CHANNELS 6 Xposition Yposition Zposition Zrotation Yrotation Xrotation 
	JOINT LHipJoint
	{
		OFFSET 0.000000 0.000000 0.000000
		CHANNELS 3 Zrotation Yrotation Xrotation
		JOINT LeftUpLeg
		{
			OFFSET 1.800000 -1.400000 0.085000
			CHANNELS 3 Zrotation Yrotation Xrotation
			JOINT LeftLeg
			{
				OFFSET 2.215000 -6.000000 0.000000
				CHANNELS 3 Zrotation Yrotation Xrotation
				JOINT LeftFoot
				{
					OFFSET 2.500000 -6.900000 0.000000
					CHANNELS 3 Zrotation Yrotation Xrotation
					JOINT LeftToeBase
					{
						OFFSET 0.200000 -0.500000 1.950000
						CHANNELS 3 Zrotation Yrotation Xrotation
						End Site
						{
							OFFSET 0.000000 0.000000 0.000000
						}
					}
				}
			}
		}
	}
	JOINT RHipJoint
	{
		OFFSET 0.000000 0.000000 0.000000
		CHANNELS 3 Zrotation Yrotation Xrotation
		JOINT RightUpLeg
		{
			OFFSET -1.800000 -1.400000 0.085000
			CHANNELS 3 Zrotation Yrotation Xrotation
			JOINT RightLeg
			{
				OFFSET -2.215000 -6.000000 0.000000
				CHANNELS 3 Zrotation Yrotation Xrotation
				JOINT RightFoot
				{
					OFFSET -2.500000 -6.900000 0.000000
					CHANNELS 3 Zrotation Yrotation Xrotation
					JOINT RightToeBase
					{
						OFFSET -0.200000 -0.500000 1.950000
						CHANNELS 3 Zrotation Yrotation Xrotation
						End Site
						{
							OFFSET 0.000000 0.000000 0.000000
						}
					}
				}
			}
		}
	}
	JOINT LowerBack
	{
		OFFSET 0.000000 0.000000 0.000000
		CHANNELS 3 Zrotation Yrotation Xrotation
		JOINT Spine
		{
			OFFSET -0.087000 1.940000 -0.288900
			CHANNELS 3 Zrotation Yrotation Xrotation
			JOINT Spine1
			{
				OFFSET 0.000000 1.950000 0.060000
				CHANNELS 3 Zrotation Yrotation Xrotation
				JOINT Neck
				{
					OFFSET 0.000000 0.000000 0.000000
					CHANNELS 3 Zrotation Yrotation Xrotation
					JOINT Neck1
					{
						OFFSET 0.000000 1.600000 0.340000
						CHANNELS 3 Zrotation Yrotation Xrotation
						JOINT Head
						{
							OFFSET 0.000000 1.667000 -0.240000
							CHANNELS 3 Zrotation Yrotation Xrotation
							End Site
							{
								OFFSET 0.000000 0.000000 0.000000
							}
						}
					}
				}
				JOINT LeftShoulder
				{
					OFFSET 0.000000 0.000000 0.000000
					CHANNELS 3 Zrotation Yrotation Xrotation
					JOINT LeftArm
					{
						OFFSET 2.700000 1.550000 -0.730000
						CHANNELS 3 Zrotation Yrotation Xrotation
						JOINT LeftForeArm
						{
							OFFSET 5.450000 0.000000 0.000000
							CHANNELS 3 Zrotation Yrotation Xrotation
							JOINT LeftHand
							{
								OFFSET 3.450000 0.000000 0.000000
								CHANNELS 3 Zrotation Yrotation Xrotation
								JOINT LeftHandIndex1
								{
									OFFSET 0.750000 0.000000 0.000000
									CHANNELS 3 Zrotation Yrotation Xrotation
									End Site
									{
										OFFSET 0.000000 0.000000 0.000000
									}
								}
							}
						}
					}
				}
				JOINT RightShoulder
				{
					OFFSET 0.000000 0.000000 0.000000
					CHANNELS 3 Zrotation Yrotation Xrotation
					JOINT RightArm
					{
						OFFSET -2.700000 1.550000 -0.730000
						CHANNELS 3 Zrotation Yrotation Xrotation
						JOINT RightForeArm
						{
							OFFSET -5.450000 0.000000 0.000000
							CHANNELS 3 Zrotation Yrotation Xrotation
							JOINT RightHand
							{
								OFFSET -3.450000 0.000000 0.000000
								CHANNELS 3 Zrotation Yrotation Xrotation
								JOINT RightHandIndex1
								{
									OFFSET -0.750000 0.000000 0.000000
									CHANNELS 3 Zrotation Yrotation Xrotation
									End Site
									{
										OFFSET 0.000000 0.000000 0.000000
									}
								}
							}
						}
					}
				}
			}
		}
	}
}
MOTION
Frames: 12
Frame Time: 0.016667
0.060810 17.260840 -1.209860 -6.377843 -5.524563 -3.446910 -15.363568 13.292323 2.458393 11.683729 -3.607040 -14.274905 -8.497617 9.752271 29.637051 -0.815010 7.016151 2.373360 0.419520 -0.087090 0.154660 18.300095 -8.718404 4.557206 -12.698037 5.450465 -48.250800 2.714224 -19.262664 71.640359 -2.087587 -12.128100 0.813977 0.126270 0.626310 0.114630 -3.275500 -4.551165 -8.440720 7.988639 -8.112987 25.290550 -2.812483 -5.666006 10.804377 1.510117 -6.956190 -9.922853 -17.219294 8.610036 36.120980 -3.891230 5.031300 -17.149220 -18.358283 -4.552526 3.031223 -28.667773 -3.462261 -4.627657 133.055525 -57.753877 -117.541492 -4.019836 2.346702 1.079820 0.289460 -0.213330 0.369010 15.775765 7.006634 6.883322 31.006650 -13.679330 -13.827941 16.938029 43.059759 4.087289 1.168952 -1.342952 -0.676370 0.726030 0.175000 -0.446040 
0.084560 17.190980 -1.240520 -6.913009 -6.097688 -3.680106 -15.353714 13.121754 2.518504 12.601913 -3.975411 -15.183726 -9.214120 10.522267 31.656673 -0.720441 7.434745 2.213013 0.440410 -0.069150 0.189330 18.335429 -8.583332 4.689894 -12.817890 5.969925 -49.423850 2.886445 -19.978668 73.335871 -2.218262 -12.466475 0.722025 0.115660 0.601060 0.139570 -3.344988 -4.437273 -8.562023 8.890138 -8.261392 27.225925 -2.982843 -5.599247 10.180144 1.662246 -6.785620 -9.791418 -16.571087 7.714359 35.704658 -4.364090 4.683800 -18.911220 -19.157715 -5.130320 2.881083 -27.784903 -2.999316 -5.323426 134.475571 -58.276844 -120.377066 -3.986959 2.393502 1.102530 0.264960 -0.169190 0.372990 16.231776 7.432303 6.969720 31.517377 -13.629657 -14.356231 17.259489 45.064361 4.424216 1.179114 -1.353230 -0.652170 0.718640 0.153800 -0.441340 
0.115230 17.075610 -1.287380 -7.026771 -6.518932 -4.227382 -15.384369 12.935290 2.635205 13.129325 -4.668244 -16.701287 -9.730397 11.534175 35.086321 -0.566198 8.009089 1.967025 0.466420 -0.013480 0.186570 18.347887 -8.333030 4.847254 -13.638782 6.282365 -51.015057 3.319856 -21.092889 75.476548 -2.351655 -12.924859 0.598733 0.128940 0.548950 0.127530 -3.328824 -4.520601 -8.711955 8.848587 -8.506132 30.692075 -2.650144 -5.845988 8.622781 1.488867 -7.455891 -9.574641 -17.451216 7.600862 33.937155 -3.418540 4.071160 -20.760180 -20.142409 -5.197270 2.620342 -27.172350 -1.966902 -6.363319 136.349990 -59.883760 -125.072530 -3.927999 2.504003 1.084900 0.218820 -0.147650 0.366170 17.589812 8.026272 6.921525 31.664362 -13.344660 -14.900787 17.439353 48.448280 4.946910 1.194281 -1.406880 -0.608030 0.691060 0.135930 -0.424020 
0.143810 16.947560 -1.335530 -6.885152 -6.632146 -4.986728 -15.442455 12.758044 2.856970 13.800388 -5.613684 -18.243747 -10.935319 12.898645 38.690216 -0.342308 8.749780 1.699784 0.503650 0.051470 0.162490 18.329128 -8.080990 4.898201 -14.541062 6.169779 -51.990947 3.454139 -21.892389 77.109516 -2.481006 -13.271100 0.516974 0.130550 0.520390 0.148360 -3.231103 -4.723714 -8.870775 8.140187 -8.721087 35.014777 -1.932582 -6.254096 6.277023 1.393206 -8.075751 -9.579113 -18.155881 7.560740 31.862933 -2.250360 3.504950 -22.924020 -21.084319 -5.560880 2.510197 -26.661472 -0.531825 -7.717560 137.273977 -62.542775 -129.368397 -3.836061 2.620323 1.094730 0.173310 -0.099640 0.409610 18.836079 8.940683 7.120648 32.283343 -13.217982 -15.572031 18.275409 51.844729 5.687588 1.212417 -1.477591 -0.558210 0.656650 0.090100 -0.379500 
0.171920 16.817200 -1.378570 -6.774718 -7.347876 -5.732226 -15.517873 12.586737 3.134731 15.008347 -6.426100 -19.569927 -12.959413 14.713613 41.594253 -0.073342 9.550066 1.414509 0.517150 0.084760 0.148720 18.291018 -7.808177 4.901519 -14.898341 6.456923 -52.475476 3.613866 -22.231733 78.041920 -2.550751 -13.438927 0.481857 0.109590 0.475150 0.156590 -3.086925 -4.979350 -9.033306 7.269827 -8.545495 39.139212 -0.737381 -6.245281 3.862994 1.394515 -8.642391 -9.868999 -18.959531 7.844209 30.382834 -1.729060 3.420000 -24.318110 -22.302694 -6.478096 2.653105 -26.513500 1.018865 -9.099510 141.051223 -65.833783 -137.861296 -3.724579 2.795140 1.084000 0.128060 -0.064830 0.423520 20.208401 10.501406 7.634778 32.534386 -13.140101 -16.025850 19.736230 54.694938 6.640317 1.251914 -1.534722 -0.502910 0.606690 0.056960 -0.347970 
0.197440 16.702700 -1.419240 -6.892037 -8.173274 -6.265322 -15.576910 12.390361 3.452255 16.686635 -7.124627 -20.988683 -15.194911 16.759663 44.194638 0.183040 10.394677 1.134762 0.502530 0.078320 0.144560 18.265799 -7.598174 4.842292 -14.559940 7.014939 -52.471960 3.500639 -21.950148 78.239038 -2.559407 -13.400385 0.499896 0.078290 0.446070 0.149100 -2.991130 -5.109847 -9.183104 7.067950 -8.408587 42.628114 0.047282 -5.897942 1.347115 1.562196 -8.803467 -10.142114 -19.034834 7.995795 29.584356 -1.843140 3.508210 -25.364040 -23.856930 -7.892701 2.679798 -26.179518 2.210683 -10.611363 147.689605 -71.841862 -150.818899 -3.596893 2.944676 1.082540 0.096200 -0.044150 0.416980 21.544496 12.199046 8.289983 33.174812 -13.037042 -16.503885 21.613155 57.067592 7.714721 1.287745 -1.549910 -0.479120 0.587690 0.045090 -0.335020 
0.210940 16.597160 -1.433320 -6.376577 -8.842026 -6.251119 -15.638940 12.226531 3.711021 17.457049 -7.705480 -22.338066 -17.018634 18.393915 45.997782 0.367755 10.998774 0.932032 0.502290 0.077670 0.151520 18.237443 -7.388429 4.827192 -14.889907 7.315138 -52.586406 4.001815 -22.099362 78.135476 -2.566045 -13.406072 0.496082 0.063870 0.405160 0.138620 -2.885120 -5.277080 -9.329389 6.413972 -7.988949 44.066904 0.828720 -5.539084 -0.835672 1.684646 -8.812183 -10.342863 -19.188582 8.408413 29.779316 -2.189820 3.655300 -25.433470 -24.464223 -8.736409 2.545136 -27.240459 2.836901 -12.161107 159.794032 -81.084142 -168.454143 -3.446976 3.013397 1.087760 0.065840 -0.029450 0.408720 22.033568 13.261603 8.638595 34.898633 -11.791317 -16.644221 23.773548 57.693097 8.729031 1.335910 -1.543604 -0.464370 0.559310 0.031250 -0.336670 
0.223470 16.497790 -1.423770 -5.674620 -9.649062 -5.540152 -15.683399 12.041810 3.963213 17.873444 -8.125675 -23.780888 -19.076632 19.925190 46.948171 0.489756 11.507964 0.784475 0.496190 0.058460 0.172600 18.222370 -7.237169 4.810125 -15.154072 7.615760 -52.691767 4.334941 -21.921020 77.557258 -2.543026 -13.285015 0.529719 0.057240 0.400170 0.118490 -2.822830 -5.314519 -9.472416 6.223454 -7.472043 43.083220 1.225911 -5.037388 -2.012406 1.758104 -8.593146 -10.558528 -19.149457 8.698931 31.037109 -2.497970 3.592910 -25.293330 -24.704815 -9.483245 2.641209 -29.325299 1.787282 -12.018495 -36.400887 -86.592572 23.892182 -3.428106 3.017337 1.119130 0.051350 -0.019880 0.402850 22.187007 14.132314 8.683845 37.148886 -9.690997 -16.577639 25.268537 56.079000 8.943403 1.376970 -1.459897 -0.489090 0.590690 0.031230 -0.350640 
0.217440 16.427800 -1.386410 -4.581804 -10.768977 -5.154305 -15.723429 12.040572 4.153906 17.864904 -8.142258 -24.173868 -21.062032 21.037156 46.743795 0.576075 11.753402 0.682897 0.514670 0.069690 0.210330 18.171049 -7.237459 4.674666 -15.016871 7.949022 -51.031258 4.684504 -21.243375 76.043221 -2.481984 -12.945859 0.596064 0.050160 0.342610 0.126260 -2.699022 -5.417943 -9.550953 5.310838 -6.486596 41.198189 1.930525 -4.453379 -2.685812 1.802537 -8.237562 -10.856844 -19.326797 9.182663 33.642506 -2.833320 3.732110 -25.593180 -24.521306 -10.575789 2.621988 -32.496271 0.384509 -12.720138 -22.433117 -71.372380 9.055698 -3.331992 2.919842 1.149440 0.014840 0.019360 0.376810 22.001861 15.316176 8.859301 39.428969 -7.339713 -16.412525 27.375068 53.706465 9.035199 1.440127 -1.384770 -0.465810 0.570790 0.031230 -0.368760 
0.193510 16.372530 -1.317540 -3.245083 -11.500942 -4.248973 -15.748225 12.047523 4.355711 17.578482 -8.112704 -24.712002 -23.120736 22.009838 46.144511 0.664754 11.947594 0.620777 0.485950 0.040730 0.209850 18.122733 -7.350406 4.463724 -14.899114 7.895503 -48.776144 4.959079 -20.254312 73.440237 -2.339021 -12.422407 0.725752 0.024170 0.338590 0.138390 -2.591261 -5.398494 -9.597661 4.504473 -5.606043 37.568393 2.422385 -4.011519 -2.844830 1.878582 -7.470431 -11.221534 -18.350793 9.295434 35.882438 -3.836310 4.245250 -24.143490 -24.466914 -11.692537 2.936892 -35.505910 -1.236181 -11.602646 -16.164394 -55.451090 3.591040 -3.363533 2.774927 1.140000 0.031250 0.026900 0.353550 21.887411 16.168825 8.972081 42.170978 -5.583900 -16.396952 30.503674 52.331255 9.541608 1.490861 -1.331497 -0.454000 0.562710 0.053260 -0.374400 
0.158090 16.336340 -1.236010 -2.403112 -13.178806 -2.807297 -15.725931 11.972517 4.531623 17.984718 -7.318371 -25.196037 -25.550227 23.132059 44.671671 0.743323 12.096723 0.593853 0.459910 0.004690 0.206900 18.125411 -7.533421 4.271737 -14.089755 8.531386 -46.374589 5.199904 -18.797019 70.205711 -2.149623 -11.762306 0.896894 0.009410 0.364980 0.145060 -2.632542 -5.046690 -9.604039 4.864014 -5.005421 32.729223 1.948235 -3.432500 -2.149939 1.925209 -6.801718 -11.693498 -17.045103 9.417210 36.916101 -4.569970 5.036410 -20.949310 -23.969451 -12.766629 3.574126 -37.983604 -2.523646 -8.896923 -10.973336 -39.171347 0.484996 -3.444403 2.630549 1.109760 0.070830 0.005710 0.353860 21.283099 17.058508 9.037439 45.299154 -3.437364 -16.164317 33.895172 51.648516 10.201758 1.545550 -1.339517 -0.461460 0.548900 0.054170 -0.374100 
0.118520 16.318120 -1.146480 -2.114494 -14.831624 -1.210067 -15.663446 11.873581 4.648374 18.601318 -6.225254 -25.488181 -27.694015 23.887461 42.675741 0.730843 12.173078 0.581633 0.422960 -0.069780 0.188230 18.172602 -7.785771 4.052044 -13.130234 8.997680 -43.706084 5.681442 -17.418654 66.163964 -1.906558 -11.032850 1.096453 0.000180 0.433290 0.169940 -2.804131 -4.533087 -9.505008 6.464187 -4.945523 27.312619 0.773190 -3.135578 -0.561491 1.931215 -6.273659 -11.651426 -15.317192 9.314352 35.900074 -5.526770 5.875200 -17.348490 -23.328660 -13.215581 3.995181 -40.191872 -4.089152 -5.109854 -8.178969 -24.527018 -0.774329 -3.626498 2.531152 1.067830 0.157880 -0.069230 0.346700 20.413182 17.183202 8.695956 48.364972 -0.556491 -15.347805 37.575066 52.209432 11.499542 1.552648 -1.391763 -0.493400 0.528700 0.089720 -0.393080 
